<svg id="Layer_2" data-name="Layer 2" xmlns="http://www.w3.org/2000/svg" viewBox="0 0 499.38 497.36">
    <title>newLogo</title>
    <path d="M504.72,8.84a92.36,92.36,0,0,1-92.36,92.36H171a34,34,0,0,0-3.79.22l-8.78.1c-20-1.92-86.83-3.76-136.47,42.16-5.46,5-9.75,12.81-13.55,22.21a1.56,1.56,0,0,1-3-.57V101.2c0-6.15.61-38.87,27.05-65.31a92.07,92.07,0,0,1,65.3-27Z" transform="translate(-5.36 -8.84)"/>
    <path d="M504.72,300.19h-.38V316A44.68,44.68,0,0,1,488,350.77c-37,30.05-99.35,32.79-124.76,32.23a2.74,2.74,0,0,1-1.51-5c7.84-5.31,12.83-13.28,12.83-22.2V329.1c-.83-15.59-11.53-21.09-35.73-21H109.18c-30.17,1.38-56.78-6.81-75.57-22S5.36,239.38,5.36,216.18V196.46a27.45,27.45,0,0,1,2.88-12.19c3.83-7.73,8.16-14.12,13.68-18.25,45.14-33.79,104.47-35.62,129.92-34.5a2.23,2.23,0,0,1,.86,4.24c-10.39,5.05-17.34,14.27-17.34,24.8v12.92c-.25,13,1.13,30.27,37,30.73l239.46.71c38.22,1,51.22,9.15,63.9,20.84C506.5,254.17,504.72,277,504.72,300.19Z" transform="translate(-5.36 -8.84)"/>
    <path d="M340.67,413.88c9.88,1.47,122.16,3.67,160.21-58.05a1.88,1.88,0,0,1,3.46,1v57h.38a92.36,92.36,0,0,1-92.36,92.36H5.36a92.36,92.36,0,0,1,92.35-92.36l243,0" transform="translate(-5.36 -8.84)"/>
    <line x1="498.98" y1="405.1" x2="498.98" y2="405"/>
    <path d="M340.67,413.88c-.91.06.92,0,0,0" transform="translate(-5.36 -8.84)"/><path d="M163.18,102.09h0" transform="translate(-5.36 -8.84)"/>
    <line x1="347.39" y1="402.29" x2="347.38" y2="402.29"/>
</svg>